<svg xmlns="http://www.w3.org/2000/svg" xmlns:xlink="http://www.w3.org/1999/xlink" viewBox="0,0,256,256" width="32px" height="32px"><g fill-opacity="0.52941" fill="#000000" fill-rule="nonzero" stroke="none" stroke-width="1" stroke-linecap="butt" stroke-linejoin="miter" stroke-miterlimit="10" stroke-dasharray="" stroke-dashoffset="0" font-family="none" font-weight="none" font-size="none" text-anchor="none" style="mix-blend-mode: normal"><g transform="scale(8,8)"><path d="M8,9v7.336c0,1.191 -0.446,3.649 -3.991,3.649c-3.552,0 -3.991,-2.288 -3.991,-3.595v-1.171h2.475v1.151c0,0.763 0.492,1.471 1.437,1.471c0.931,0 1.51,-0.538 1.51,-1.45v-7.391zM12.379,18.305c-0.785,0 -1.229,-0.613 -1.229,-1.724h4.527c0,-3.481 -1.857,-4.085 -3.404,-4.085c-2.785,0 -3.404,2.111 -3.404,3.921c0,1.807 1.238,3.568 3.404,3.568c2.016,0 3.375,-1.327 3.375,-2.326h-2.223c0,0 -0.259,0.646 -1.046,0.646zM12.249,14.008c0.836,0 1.205,0.65 1.205,1.325h-2.304c0,-0.726 0.286,-1.325 1.099,-1.325zM19.869,18.305c-0.785,0 -1.229,-0.613 -1.229,-1.724h4.527c0,-3.481 -1.857,-4.085 -3.404,-4.085c-2.785,0 -3.404,2.111 -3.404,3.921c0,1.807 1.238,3.568 3.404,3.568c2.016,0 3.375,-1.327 3.375,-2.326h-2.223c-0.001,0 -0.259,0.646 -1.046,0.646zM19.738,14.008c0.836,0 1.205,0.65 1.205,1.325h-2.303c-0.001,-0.726 0.285,-1.325 1.098,-1.325zM28.876,12.496c-1.625,0 -2.22,1.033 -2.305,1.218v-1.218h-2.571v10.213h2.571v-3.404c0.1,0.133 0.689,0.966 2.334,0.966c1.972,0 3.095,-1.697 3.095,-4.016c0,-3.001 -1.896,-3.759 -3.124,-3.759zM28.134,18.541c-1.2,0 -1.591,-0.759 -1.563,-2.202c0.031,-1.444 0.68,-2.035 1.448,-2.035c1.257,0 1.489,0.96 1.489,1.951c0,0.989 -0.176,2.286 -1.374,2.286z"></path></g></g></svg>