<svg xmlns="http://www.w3.org/2000/svg" xmlns:xlink="http://www.w3.org/1999/xlink" viewBox="0,0,256,256" width="50px" height="50px"><g fill-opacity="0.34118" fill="#000000" fill-rule="nonzero" stroke="none" stroke-width="1" stroke-linecap="butt" stroke-linejoin="miter" stroke-miterlimit="10" stroke-dasharray="" stroke-dashoffset="0" font-family="none" font-weight="none" font-size="none" text-anchor="none" style="mix-blend-mode: normal"><g transform="scale(5.12,5.12)"><path d="M11,4c-3.855,0 -7,3.145 -7,7v28c0,3.855 3.145,7 7,7h28c3.855,0 7,-3.145 7,-7v-28c0,-3.855 -3.145,-7 -7,-7zM11,6h28c2.773,0 5,2.227 5,5v28c0,2.773 -2.227,5 -5,5h-28c-2.773,0 -5,-2.227 -5,-5v-28c0,-2.773 2.227,-5 5,-5zM11,15c-0.552,0 -1,0.447 -1,1v18c0,0.553 0.448,1 1,1h4c0.552,0 1,-0.447 1,-1v-13h8c1.103,0 2,0.897 2,2v11c0,0.553 0.447,1 1,1h4c0.553,0 1,-0.447 1,-1v-12c0,-3.859 -3.141,-7 -7,-7zM35,15c-0.553,0 -1,0.447 -1,1v18c0,0.553 0.447,1 1,1h4c0.553,0 1,-0.447 1,-1v-18c0,-0.553 -0.447,-1 -1,-1zM12,17h13c2.757,0 5,2.243 5,5v11h-2v-10c0,-2.206 -1.794,-4 -4,-4h-9c-0.552,0 -1,0.447 -1,1v13h-2zM36,17h2v16h-2zM19,22c-0.552,0 -1,0.447 -1,1v11c0,0.553 0.448,1 1,1h4c0.552,0 1,-0.447 1,-1v-11c0,-0.553 -0.448,-1 -1,-1zM20,24h2v9h-2z"></path></g></g></svg>