<svg xmlns="http://www.w3.org/2000/svg" xmlns:xlink="http://www.w3.org/1999/xlink" viewBox="0,0,256,256" width="50px" height="50px"><g fill-opacity="0.41961" fill="#000000" fill-rule="nonzero" stroke="none" stroke-width="1" stroke-linecap="butt" stroke-linejoin="miter" stroke-miterlimit="10" stroke-dasharray="" stroke-dashoffset="0" font-family="none" font-weight="none" font-size="none" text-anchor="none" style="mix-blend-mode: normal"><g transform="scale(5.12,5.12)"><path d="M25.20508,2.00781l-5.05469,13.99219h3.24414c2.12,0 3.26311,1.63195 2.53711,3.62695l-5.43945,14.375l-3.91797,-0.00195l5.57617,-15h-3.18555l-5.57617,15h-4.23828l11.64844,-31.60547c-0.471,0.087 -0.93844,0.18478 -1.39844,0.30078c-9.984,2.507 -17.39844,11.55564 -17.39844,22.30664c0,10.381 6.91295,19.17244 16.37695,22.02344c0.321,0.097 0.64566,0.19044 0.97266,0.27344l0.69141,-1.91211l4.02539,-11.12891h0.00195l6.51953,-18.25781h7.80273c2.122,0 3.26406,1.63195 2.53906,3.62695l-4.74805,12.6875c-0.338,0.927 -1.4212,1.68555 -2.4082,1.68555h-5.625l-4.32422,11.94141l-0.71484,1.97656c0.292,0.024 0.58391,0.04659 0.87891,0.05859c0.336,0.015 0.67272,0.02539 1.01172,0.02539c12.682,0 23,-10.317 23,-23c-0.001,-12.392 -9.85377,-22.52052 -22.13476,-22.97852c-0.22,-0.008 -0.44111,-0.01363 -0.66211,-0.01562zM26.56445,4.08008c10.85,0.805 19.4375,9.86987 19.4375,20.92187c0,11.262 -8.91855,20.45417 -20.06055,20.95117l3.60938,-9.95312h4.22461c1.821,0 3.66425,-1.29037 4.28125,-2.98437l4.74805,-12.68945c0.578,-1.591 0.4155,-3.1902 -0.4375,-4.4082c-0.839,-1.197 -2.25267,-1.88911 -3.88867,-1.91211c-0.04,-0.003 -9.29883,-0.00586 -9.29883,-0.00586l-1.17773,3.29883c-0.128,-0.494 -0.34077,-0.96086 -0.63477,-1.38086c-0.853,-1.219 -2.30066,-1.91797 -3.97266,-1.91797h-0.40039zM17.60547,5.37109l-11.02539,29.69727c-1.641,-2.991 -2.57812,-6.42041 -2.57812,-10.06641c-0.001,-8.973 5.66852,-16.62986 13.60352,-19.63086zM33.96484,19l-4.50977,12h3.18555l4.50977,-12zM7.14648,36l14.16016,0.00195l-3.17187,8.82422c-4.6,-1.599 -8.46628,-4.74717 -10.98828,-8.82617z"></path></g></g></svg>