<svg xmlns="http://www.w3.org/2000/svg" xmlns:xlink="http://www.w3.org/1999/xlink" viewBox="0,0,256,256" width="50px" height="50px"><g fill-opacity="0.34118" fill="#000000" fill-rule="nonzero" stroke="none" stroke-width="1" stroke-linecap="butt" stroke-linejoin="miter" stroke-miterlimit="10" stroke-dasharray="" stroke-dashoffset="0" font-family="none" font-weight="none" font-size="none" text-anchor="none" style="mix-blend-mode: normal"><g transform="scale(5.12,5.12)"><path d="M13.37109,16.38672c-1.696,0 -2.75,1.14342 -2.75,2.98242v0.63086h-0.41406c-0.082,0 -0.15808,0.03947 -0.20508,0.10547l-1.11719,1.59961c-0.053,0.077 -0.06058,0.17777 -0.01758,0.25977c0.043,0.083 0.12866,0.13477 0.22266,0.13477h1.53125v7.55078c0,0.138 0.112,0.25 0.25,0.25h2.04688c0.138,0 0.25,-0.112 0.25,-0.25v-7.55078h1.83594c0.138,0 0.25,-0.112 0.25,-0.25v-1.59961c0,-0.138 -0.112,-0.25 -0.25,-0.25h-1.83594v-0.66016c0,-0.55 0.17047,-0.7168 0.73047,-0.7168c0.441,0 0.87406,0.10444 1.03906,0.14844c0.076,0.021 0.1538,0.00503 0.2168,-0.04297c0.062,-0.047 0.09961,-0.12122 0.09961,-0.19922v-1.64453c0,-0.105 -0.06602,-0.19933 -0.16601,-0.23633c-0.472,-0.169 -1.0828,-0.26172 -1.7168,-0.26172zM37.53516,16.70703c-0.04187,-0.00188 -0.08355,0.00589 -0.12305,0.02539l-2.04102,1.03711c-0.084,0.042 -0.13672,0.12866 -0.13672,0.22266v2.00781h-1.23828c-0.138,0 -0.25,0.112 -0.25,0.25v1.59961c0,0.138 0.112,0.25 0.25,0.25h1.23828v5.00391c0,1.839 1.05214,2.97852 2.74414,2.97852c0.563,0 1.09605,-0.06836 1.49805,-0.19336c0.092,-0.028 0.15883,-0.10617 0.17383,-0.20117l0.24609,-1.63086c0.013,-0.082 -0.01713,-0.1637 -0.07812,-0.2207c-0.061,-0.056 -0.14456,-0.07955 -0.22656,-0.06055c-0.343,0.083 -0.63423,0.125 -0.86523,0.125c-0.711,0 -0.95117,-0.2355 -0.95117,-0.9375v-4.86328h1.5c0.082,0 0.16003,-0.04138 0.20703,-0.10937c0.047,-0.067 0.05734,-0.15252 0.02734,-0.22852l-0.61133,-1.59961c-0.038,-0.098 -0.13038,-0.16211 -0.23438,-0.16211h-0.88867v-3.04492c0,-0.087 -0.04514,-0.16789 -0.11914,-0.21289c-0.037,-0.022 -0.07922,-0.03328 -0.12109,-0.03516zM24.97656,19.8125c-0.798,0 -1.55747,0.25164 -2.10547,0.68164v-0.24414c0,-0.138 -0.112,-0.25 -0.25,-0.25h-2.04297c-0.138,0 -0.25,0.112 -0.25,0.25v9.40039c0,0.138 0.112,0.25 0.25,0.25h2.04297c0.138,0 0.25,-0.112 0.25,-0.25v-5.48633c0,-0.965 0.27942,-2.11523 1.60742,-2.11523c0.965,0 1.60742,0.38997 1.60742,2.29297v5.30859c0,0.138 0.112,0.25 0.25,0.25h2.04102c0.138,0 0.25,-0.112 0.25,-0.25v-5.37891c0,-2.876 -1.29739,-4.45898 -3.65039,-4.45898zM0.22461,20c-0.093,0 -0.17966,0.05177 -0.22266,0.13477c-0.043,0.083 -0.03642,0.18377 0.01758,0.25977l3.0918,4.39453l-3.31641,4.71875c-0.054,0.076 -0.06058,0.17677 -0.01758,0.25977c0.043,0.083 0.12966,0.13281 0.22266,0.13281h2.3457c0.083,0 0.16003,-0.04137 0.20703,-0.10937l1.99609,-2.92187l4.18164,5.97656c0.047,0.066 0.12212,0.10447 0.20313,0.10547l2.26172,0.01758h0.00195c0.093,0 0.17866,-0.05081 0.22266,-0.13281c0.043,-0.082 0.03642,-0.18377 -0.01758,-0.25977l-5.42773,-7.78711l3.0957,-4.39648c0.054,-0.076 0.06058,-0.17481 0.01758,-0.25781c-0.043,-0.083 -0.12966,-0.13477 -0.22266,-0.13477h-2.34375c-0.083,0 -0.16003,0.04137 -0.20703,0.10938l-1.76953,2.58984l-1.76953,-2.58984c-0.046,-0.068 -0.12208,-0.10937 -0.20508,-0.10937zM16.34766,20c-0.138,0 -0.25,0.112 -0.25,0.25v9.40039c0,0.138 0.112,0.25 0.25,0.25h2.04492c0.138,0 0.25,-0.112 0.25,-0.25v-9.40039c0,-0.138 -0.113,-0.25 -0.25,-0.25zM30.4668,20c-0.138,0 -0.25,0.112 -0.25,0.25v9.40039c0,0.138 0.112,0.25 0.25,0.25h2.05469c0.138,0 0.25,-0.112 0.25,-0.25v-9.40039c0,-0.138 -0.113,-0.25 -0.25,-0.25zM40.15039,20c-0.082,0 -0.16003,0.04042 -0.20703,0.10742c-0.047,0.068 -0.05539,0.15542 -0.02539,0.23242l3.10742,8.08789l-2.23633,4.14453c-0.042,0.077 -0.03914,0.17109 0.00586,0.24609c0.044,0.076 0.12489,0.12205 0.21289,0.12305l2.15234,0.01758h0.00195c0.091,0 0.17475,-0.05086 0.21875,-0.13086l6.83789,-12.45898c0.043,-0.077 0.04109,-0.17109 -0.00391,-0.24609c-0.045,-0.076 -0.12684,-0.12305 -0.21484,-0.12305h-2.20508c-0.092,0 -0.1767,0.05086 -0.2207,0.13086l-3.01758,5.50977l-2.05273,-5.47852c-0.036,-0.098 -0.13038,-0.16211 -0.23437,-0.16211z"></path></g></g></svg>