<svg xmlns="http://www.w3.org/2000/svg" xmlns:xlink="http://www.w3.org/1999/xlink" viewBox="0,0,256,256" width="50px" height="50px"><g fill-opacity="0.34118" fill="#000000" fill-rule="nonzero" stroke="none" stroke-width="1" stroke-linecap="butt" stroke-linejoin="miter" stroke-miterlimit="10" stroke-dasharray="" stroke-dashoffset="0" font-family="none" font-weight="none" font-size="none" text-anchor="none" style="mix-blend-mode: normal"><g transform="scale(5.12,5.12)"><path d="M14,3.99023c-5.511,0 -10,4.489 -10,10v22c0,5.511 4.489,10 10,10h22c5.511,0 10,-4.489 10,-10v-22c0,-5.511 -4.489,-10 -10,-10zM14,5.99023h22c4.431,0 8,3.569 8,8v22c0,4.431 -3.569,8 -8,8h-22c-4.431,0 -8,-3.569 -8,-8v-22c0,-4.43 3.569,-8 8,-8zM37.875,11.25c0,0 -6.875,7.75 -9.875,11.375c-3,3.625 -2,6.5 -2,6.5c0,0 -4.625,-5.5 -7.375,-6.75c3.625,-1.625 5.75,1 5.75,1l1.5,-1.25c0,0 -0.644,-1.827 -3.875,-2.5c-3,-0.625 -6.125,1.5 -6.125,1.5c0,0 -1.5,-0.5 -6.25,0.25c6.625,0.375 11.375,4.625 14.25,8.75c2.875,4.125 5.625,3.125 5.625,3.125c-3.5,-3.75 0.375,-9.375 0.375,-9.375c0,0 5.125,-5.875 6.875,-8c1.75,-2.125 1.125,-4.625 1.125,-4.625zM37.625,18.875c-3.25,3.25 -5.375,5.875 -5.375,5.875c0,0 -3.5,3.75 -0.375,7.5c3.125,3.75 4.125,4.625 4.125,4.625c0,0 2.25,2.375 4.125,1.25l-6.25,-7.125c0,0 -1.875,-2.75 0.125,-4.875c2,-2.125 2.875,-3.25 2.875,-3.25c0,0 1.375,-1.125 0.75,-4z"></path></g></g></svg>