<svg xmlns="http://www.w3.org/2000/svg" xmlns:xlink="http://www.w3.org/1999/xlink" viewBox="0,0,256,221.04688" width="50px" height="50px"><g fill-opacity="0.34118" fill="#000000" fill-rule="nonzero" stroke="none" stroke-width="1" stroke-linecap="butt" stroke-linejoin="miter" stroke-miterlimit="10" stroke-dasharray="" stroke-dashoffset="0" font-family="none" font-weight="none" font-size="none" text-anchor="none" style="mix-blend-mode: normal"><g transform="scale(5.33333,5.33333)"><path d="M43,0v0.00586h-3.75781h-0.85156c-0.37504,-0.00002 -0.73472,0.14896 -0.99991,0.41415c-0.26519,0.26519 -0.41417,0.62487 -0.41415,0.99991v20.33789c0.00151,0.93675 0.76052,1.69576 1.69727,1.69727h5.80078c0.93827,-0.00043 1.69879,-0.76094 1.69922,-1.69922v-11.93555c-0.00032,-0.31192 -0.25253,-0.56501 -0.56445,-0.56641h-3.07031c-0.15,0.00014 -0.29378,0.05993 -0.39966,0.16618c-0.10588,0.10625 -0.16517,0.25024 -0.16479,0.40023v2c-0.00037,0.15 0.05891,0.29398 0.16479,0.40023c0.10588,0.10625 0.24966,0.16603 0.39966,0.16618h0.13477v6.89063l0.23828,0.10742c-0.03473,0.29904 -0.11923,0.59016 -0.25,0.86133c-0.03,0.034 -0.20033,-0.09913 -0.23633,-0.07812c-0.09357,0.06471 -0.20459,0.09945 -0.31836,0.09961h-0.90039c-0.31215,-0.00085 -0.56468,-0.25426 -0.56445,-0.56641v-15.60156l-0.13477,-0.55078c-0.00866,-0.17755 0.0776,-0.34636 0.22656,-0.44336c0.091,-0.061 0.35566,0.04297 0.47266,0.04297h1.22266c0.15,-0.00141 0.2944,0.05688 0.40138,0.16202c0.10698,0.10515 0.16776,0.24852 0.16893,0.39852v1.41211c-0.00011,0.15025 0.05953,0.29438 0.16578,0.40063c0.10625,0.10625 0.25038,0.16589 0.40063,0.16578h2.04492c0.15033,0.00037 0.29462,-0.05918 0.40092,-0.16548c0.1063,-0.1063 0.16586,-0.25059 0.16548,-0.40092v-3.70703c0.00002,-0.37606 -0.14976,-0.73663 -0.41622,-1.00199c-0.26646,-0.26536 -0.62765,-0.41365 -1.0037,-0.41207zM2,0.00586c-0.31161,0.0003 -0.56415,0.25284 -0.56445,0.56445v4.91016l0.40039,0.39648l-0.39648,0.63281v4.13086c-0.1207,-0.00002 -0.23646,0.04792 -0.32181,0.13327c-0.08535,0.08535 -0.13329,0.20111 -0.13327,0.32181v2.52539c-0.00029,0.12044 0.0473,0.23606 0.13228,0.32141c0.08498,0.08535 0.2004,0.13343 0.32084,0.13366v0.20703l0.27539,0.38477l-0.27539,0.3457v7.59375c0.00019,0.46807 0.37959,0.84747 0.84766,0.84766h1.9668c0.46807,-0.00019 0.84747,-0.37959 0.84766,-0.84766v-8.53125h2.4668v-0.00781h1.47656c0.45094,-0.00021 0.88331,-0.17957 1.20199,-0.49861c0.31868,-0.31904 0.49754,-0.75163 0.49723,-1.20256v-10.66211c-0.00043,-0.93827 -0.76095,-1.69879 -1.69922,-1.69922zM26.04883,0.00781c-0.15033,-0.00037 -0.29462,0.05918 -0.40092,0.16548c-0.1063,0.1063 -0.16586,0.25059 -0.16548,0.40092v5.16016l0.21094,0.71875l-0.21094,0.4082v1.53125l0.35547,0.45508l-0.35547,0.69531c-0.12078,-0.00029 -0.2367,0.04757 -0.32211,0.13297c-0.08541,0.08541 -0.13326,0.20132 -0.13297,0.32211v2.22656c-0.00029,0.12078 0.04757,0.2367 0.13297,0.32211c0.08541,0.08541 0.20132,0.13326 0.32211,0.13297v10.21094c0.00014,0.15 0.05993,0.29378 0.16617,0.39966c0.10625,0.10588 0.25023,0.16517 0.40023,0.16479h6.78906c0.93827,-0.00043 1.69879,-0.76095 1.69922,-1.69922v-8.91992l-0.00586,-0.34375c-0.01279,-0.71209 -0.41671,-1.35926 -1.05078,-1.68359l0.16016,-0.12305c0.53652,-0.4029 0.86638,-1.02327 0.90039,-1.69336v-0.91016l-0.14648,-0.52734l0.14648,-0.59961l-0.26758,-0.55078l0.26758,-0.64648v-4.61914c-0.00003,-0.30161 -0.12052,-0.59072 -0.33471,-0.80307c-0.21419,-0.21235 -0.50432,-0.33036 -0.80592,-0.32779zM20.09961,0.03125c-0.15101,-0.0009 -0.2961,0.05869 -0.40288,0.16547c-0.10678,0.10678 -0.16638,0.25187 -0.16547,0.40288v14.30664l-0.14648,0.55078l0.14648,0.45508v3.76563c-0.0003,0.31161 -0.25284,0.56415 -0.56445,0.56445l-0.27734,-0.31836l-1.16016,0.16797l-0.05273,0.15039c-0.15,0.00037 -0.29398,-0.05891 -0.40023,-0.16479c-0.10625,-0.10588 -0.16603,-0.24966 -0.16617,-0.39966v-19.07812c0.00037,-0.15033 -0.05918,-0.29462 -0.16548,-0.40092c-0.1063,-0.1063 -0.25059,-0.16586 -0.40092,-0.16548h-2.53125c-0.15033,-0.00037 -0.29462,0.05918 -0.40092,0.16548c-0.1063,0.1063 -0.16586,0.25059 -0.16548,0.40092v21.18164c0.00151,0.93675 0.76052,1.69576 1.69726,1.69727h6.55664c0.93827,-0.00043 1.69879,-0.76094 1.69922,-1.69922v-18.45117l-0.2793,-0.58594l0.2793,-0.62305v-0.41992l-0.18945,-0.19922l0.18945,-0.3418v-0.55859c0.00063,-0.15093 -0.05905,-0.29586 -0.16577,-0.40259c-0.10673,-0.10673 -0.25166,-0.1664 -0.40259,-0.16577zM29.71289,3.14258h0.5918c0.15025,-0.00011 0.29438,0.05953 0.40063,0.16578c0.10625,0.10625 0.16589,0.25038 0.16578,0.40063v5.83398h-1.05859l-0.21289,-0.26367l-0.45117,-0.07227l-0.00195,-5.49805c-0.00011,-0.15025 0.05953,-0.29438 0.16578,-0.40063c0.10625,-0.10625 0.25038,-0.16589 0.40063,-0.16578zM5.38281,3.19922h1.30078c0.07521,-0.00032 0.14743,0.02941 0.20061,0.08259c0.05318,0.05318 0.08291,0.1254 0.08259,0.20061v6.19141h0.28711l-0.02734,0.60937h-0.25977c0.00012,0.09431 -0.03729,0.1848 -0.10398,0.25149c-0.06669,0.06669 -0.15718,0.1041 -0.25149,0.10398h-1.15625c-0.09431,0.00012 -0.1848,-0.03729 -0.25149,-0.10398c-0.06669,-0.06669 -0.1041,-0.15718 -0.10398,-0.25149l-0.32227,-0.25195l0.32227,-0.30859v-6.23828c-0.00058,-0.07546 0.02901,-0.14803 0.08219,-0.20158c0.05318,-0.05355 0.12554,-0.08363 0.20101,-0.08358zM29.67383,12.67969c0.01302,-0.00045 0.02605,-0.00045 0.03906,0h0.5918c0.31192,0.00032 0.565,0.25253 0.56641,0.56445v4.15625l0.2832,0.5l-0.2832,0.35938v1.5c0,0.053 0.15211,0.06958 0.16211,0.14258c-0.01318,0.13682 -0.0716,0.26534 -0.16602,0.36523c-0.09594,0.07537 -0.21394,0.11722 -0.33594,0.11914c-0.0789,-0.00569 -0.1559,-0.02693 -0.22656,-0.0625h-0.5918c-0.31215,0.00023 -0.56555,-0.25231 -0.56641,-0.56445v-6.51562c0.00061,-0.29731 0.23076,-0.54366 0.52734,-0.56445zM1.93945,25.4082c-0.44168,0.00065 -0.79926,0.35911 -0.79883,0.80078v2.16797h-0.85742c-0.15569,-0.00011 -0.28224,0.12556 -0.2832,0.28125v0.9082c-0.00005,0.07513 0.02977,0.14719 0.08289,0.20031c0.05312,0.05312 0.12519,0.08294 0.20031,0.08289h0.85742v7.07617h-0.85742c-0.15569,-0.00011 -0.28224,0.12556 -0.2832,0.28125v0.9082c-0.00005,0.07513 0.02977,0.14719 0.08289,0.20031c0.05312,0.05312 0.12519,0.08294 0.20031,0.08289h0.85742v2.25c-0.00021,0.21244 0.08409,0.41625 0.23431,0.56647c0.15022,0.15022 0.35402,0.23452 0.56647,0.23431h43.93945c0.21244,0.00021 0.41625,-0.08409 0.56647,-0.23431c0.15022,-0.15022 0.23452,-0.35402 0.23431,-0.56647v-2.24805h1.03711c0.07513,-0.00046 0.14699,-0.03078 0.19975,-0.08427c0.05276,-0.05349 0.08208,-0.12576 0.0815,-0.20089v-0.9082c-0.00096,-0.15569 -0.12751,-0.28136 -0.2832,-0.28125h-1.03711v-7.07617h1.03711c0.07513,0.00005 0.14719,-0.02977 0.20031,-0.08289c0.05312,-0.05312 0.08294,-0.12519 0.08289,-0.20031v-0.9082c-0.00096,-0.15569 -0.12751,-0.28136 -0.2832,-0.28125h-1.03711v-2.16797c0.00021,-0.21244 -0.08409,-0.41625 -0.23431,-0.56647c-0.15022,-0.15022 -0.35402,-0.23452 -0.56647,-0.23431zM2.73828,27.00781h42.34375v12.8418h-42.34375zM7.06445,29.0957v9.02539h4.05859v-1.75977h-2.29883v-7.26562zM17.64844,29.0957v8.9668h1.75977v-8.9668zM27.4668,29.0957v0.00586h-1.27539v1.68164h1.27539v7.2793h1.75977v-7.2793h1.42383v-1.68164h-1.42383v-0.00586zM37.04492,29.0957v3.4707h-0.19141v1.50781h0.19141v3.98828h0.16797h1.5918h1.6582v-1.64258h-1.6582v-2.3457h1.60352v-1.50781h-1.60352v-1.7832h1.75977v-1.68164h-1.75977v-0.00586z"></path></g></g></svg>