<svg xmlns="http://www.w3.org/2000/svg" xmlns:xlink="http://www.w3.org/1999/xlink" viewBox="0,0,256,256" width="50px" height="50px"><g fill-opacity="0.52941" fill="#000000" fill-rule="nonzero" stroke="none" stroke-width="1" stroke-linecap="butt" stroke-linejoin="miter" stroke-miterlimit="10" stroke-dasharray="" stroke-dashoffset="0" font-family="none" font-weight="none" font-size="none" text-anchor="none" style="mix-blend-mode: normal"><g transform="scale(5.12,5.12)"><path d="M1.5,20c-0.82812,0 -1.5,0.67188 -1.5,1.5v8.5h2v-7.5c0,-0.27734 0.22266,-0.5 0.5,-0.5h2.5v8h2v-8h2.5c0.27734,0 0.5,0.22266 0.5,0.5v7.5h2v-8.5c0,-0.82812 -0.67187,-1.5 -1.5,-1.5zM15.5,20c-0.82812,0 -1.5,0.67188 -1.5,1.5v7c0,0.82813 0.67188,1.5 1.5,1.5h7.5v-2h-6.5c-0.27734,0 -0.5,-0.22266 -0.5,-0.5v-1.5h6v-2h-6v-1.5c0,-0.27734 0.22266,-0.5 0.5,-0.5h6.5v-2zM25,20v10h2v-10zM29,20v2h5.78125l-5.36328,6.17188l0.05078,-0.05469c-0.32031,0.31641 -0.39844,0.82813 -0.24609,1.19922c0.15625,0.375 0.57031,0.68359 1.01563,0.68359h7.76172v-2h-5.78125l5.31641,-6.12109c0.32031,-0.31641 0.39453,-0.83203 0.24219,-1.20312c-0.15625,-0.36719 -0.57031,-0.67578 -1.01562,-0.67578zM40,20v8.5c0,0.82813 0.67188,1.5 1.5,1.5h7c0.82813,0 1.5,-0.67187 1.5,-1.5v-8.5h-2v7.5c0,0.27734 -0.22266,0.5 -0.5,0.5h-5c-0.27734,0 -0.5,-0.22266 -0.5,-0.5v-7.5z"></path></g></g></svg>